# xmcd
#
# Track frame offsets: 
#        150
#        17491
#        30390
#        51504
#        61784
#        74632
#        88646
#        101056
#        113850
#        126064
#
# Disc length: 1864 seconds
#
# Revision: 2
# Processed by: cddbd v1.5.2PL0 Copyright (c) Steve Scherf et al.
# Submitted via: ExactAudioCopy v1.1
#
DISCID=8307460a
DTITLE=Stomping Nick - Shake For Your Cake
DYEAR=2016
DGENRE=Blues
TTITLE0=The Devil Likes to Boogie
TTITLE1=Bee My Honey
TTITLE2=Woolston Whiskey
TTITLE3=Porter No More
TTITLE4=These Boots Are Made For Walkin'
TTITLE5=Coopers Creek
TTITLE6=Lazy Boy
TTITLE7=The Dust Is Blowing
TTITLE8=Pray For Me Mama (I'm A One Man Band)
TTITLE9=Somebody's Somebody
EXTD=stompingnick.com
EXTT0=
EXTT1=
EXTT2=
EXTT3=
EXTT4=
EXTT5=
EXTT6=
EXTT7=
EXTT8=
EXTT9=
PLAYORDER=
